# xmcd
#
# Track frame offsets: 
#        150
#        13097
#        28044
#        37030
#        55287
#        71835
#        84354
#        96185
#        113227
#        122815
#        135607
#        152105
#
# Disc length: 2173 seconds
#
# Revision: 0
# Processed by: cddbd v1.5.2PL0 Copyright (c) Steve Scherf et al.
# Submitted via: ExactAudioCopy v0.99pb4
#
DISCID=a3087b0c
DTITLE=Front Range - The Road Home
DYEAR=1990
DGENRE=Bluegrass
TTITLE0=Julia
TTITLE1=High Mountain Meadow
TTITLE2=He is Risen
TTITLE3=Fire in the Canyon
TTITLE4=Snowblind
TTITLE5=Stranger
TTITLE6=Absence Makes the Heart Grow Fonder
TTITLE7=The Road Home
TTITLE8=Thats what lies wil do
TTITLE9=Nightime nlues
TTITLE10=Delaware
TTITLE11=The only one I love
EXTD=
EXTT0=
EXTT1=
EXTT2=
EXTT3=
EXTT4=
EXTT5=
EXTT6=
EXTT7=
EXTT8=
EXTT9=
EXTT10=
EXTT11=
PLAYORDER=
